<svg xmlns="http://www.w3.org/2000/svg" xmlns:xlink="http://www.w3.org/1999/xlink" width="500" zoomAndPan="magnify" viewBox="0 0 375 374.999991" height="500" preserveAspectRatio="xMidYMid meet" version="1.0"><defs><g><g id="id1"/><g id="id2"/></g><clipPath id="id3"><path d="M 221 160 L 261.734375 160 L 261.734375 170 L 221 170 Z M 221 160 " clip-rule="nonzero"/></clipPath><clipPath id="id4"><path d="M 139 200 L 182 200 L 182 220.5 L 139 220.5 Z M 139 200 " clip-rule="nonzero"/></clipPath><clipPath id="id5"><path d="M 113.234375 91 L 172 91 L 172 146 L 113.234375 146 Z M 113.234375 91 " clip-rule="nonzero"/></clipPath><clipPath id="id6"><path d="M 156 63.75 L 226 63.75 L 226 178 L 156 178 Z M 156 63.75 " clip-rule="nonzero"/></clipPath></defs><path fill="rgb(98.429871%, 68.238831%, 24.308777%)" d="M 216.859375 129.972656 C 216.382812 129.660156 215.027344 128.347656 214.582031 127.875 L 212.339844 125.59375 C 211.035156 124.082031 209.136719 122.652344 207.679688 121.171875 C 207.460938 121.535156 207.472656 122.078125 207.4375 122.535156 C 207.21875 125.210938 206.453125 132.074219 206.484375 133.710938 L 215.695312 130.558594 C 217.667969 129.835938 224.601562 130.503906 227.863281 130.246094 C 227.554688 129.410156 226.933594 128.316406 226.472656 127.441406 L 222.007812 118.707031 C 221.171875 120.03125 217.550781 129.195312 216.863281 129.976562 Z M 216.859375 129.972656 " fill-opacity="1" fill-rule="evenodd"/><path fill="rgb(98.429871%, 68.238831%, 24.308777%)" d="M 247.878906 142.265625 C 248.792969 144.394531 252.535156 150.15625 253.273438 151.878906 C 253.761719 151.511719 256.410156 147.242188 256.890625 146.503906 L 260.421875 140.992188 L 247.878906 142.261719 Z M 247.878906 142.265625 " fill-opacity="1" fill-rule="evenodd"/><path fill="rgb(98.429871%, 68.238831%, 24.308777%)" d="M 228.40625 130.351562 C 228.558594 130.523438 228.441406 130.433594 228.652344 130.566406 L 233.507812 132.375 C 234.5625 132.773438 237.957031 134.136719 238.792969 134.246094 L 237.210938 121.40625 C 236.503906 121.742188 229.574219 129.660156 228.402344 130.351562 Z M 228.40625 130.351562 " fill-opacity="1" fill-rule="evenodd"/><path fill="rgb(98.429871%, 68.238831%, 24.308777%)" d="M 191.179688 150.628906 C 191.554688 150.300781 196.75 141.542969 196.847656 141.125 L 184 140.265625 L 191.183594 150.628906 Z M 191.179688 150.628906 " fill-opacity="1" fill-rule="evenodd"/><path fill="rgb(98.429871%, 68.238831%, 24.308777%)" d="M 239.210938 134.613281 C 240.03125 135.492188 241.667969 136.71875 242.296875 137.296875 L 244.390625 139.0625 C 244.84375 139.382812 245.007812 139.675781 245.421875 140.023438 L 247.585938 141.738281 L 250.566406 129.15625 L 239.207031 134.613281 Z M 239.210938 134.613281 " fill-opacity="1" fill-rule="evenodd"/><path fill="rgb(98.429871%, 68.238831%, 24.308777%)" d="M 178.546875 154.78125 L 188.792969 161.933594 L 190.917969 151.113281 L 178.886719 154.582031 C 178.636719 154.6875 179.074219 154.46875 178.710938 154.675781 C 178.6875 154.683594 178.644531 154.71875 178.625 154.726562 C 178.609375 154.738281 178.574219 154.765625 178.546875 154.785156 Z M 178.546875 154.78125 " fill-opacity="1" fill-rule="evenodd"/><path fill="rgb(98.429871%, 68.238831%, 24.308777%)" d="M 197.3125 140.796875 L 205.863281 133.859375 L 194.078125 128.574219 Z M 197.3125 140.796875 " fill-opacity="1" fill-rule="evenodd"/><g clip-path="url(#id3)"><path fill="rgb(17.248535%, 61.959839%, 78.039551%)" d="M 259.425781 160.207031 C 246.652344 162.738281 233.875 165.246094 221.132812 167.925781 L 232.410156 169.707031 C 241.824219 167.632812 251.257812 165.667969 260.703125 163.726562 C 261.0625 162.679688 261.40625 161.625 261.726562 160.5625 L 259.421875 160.203125 Z M 259.425781 160.207031 " fill-opacity="1" fill-rule="evenodd"/></g><path fill="rgb(17.248535%, 61.959839%, 78.039551%)" d="M 214.285156 166.84375 C 226.917969 164.128906 239.582031 161.609375 252.25 159.097656 L 248.171875 158.464844 L 236.976562 158.464844 C 225.722656 160.625 214.472656 162.796875 203.242188 165.097656 L 214.285156 166.839844 Z M 214.285156 166.84375 " fill-opacity="1" fill-rule="evenodd"/><path fill="rgb(17.248535%, 61.959839%, 78.039551%)" d="M 232.476562 172.234375 C 219.460938 175.109375 206.46875 178.179688 193.613281 181.730469 L 206.507812 183.808594 C 218.953125 180.164062 231.539062 177.011719 244.171875 174.085938 L 232.472656 172.238281 Z M 232.476562 172.234375 " fill-opacity="1" fill-rule="evenodd"/><path fill="rgb(17.248535%, 61.959839%, 78.039551%)" d="M 214.347656 169.371094 C 201.210938 172.203125 188.105469 175.238281 175.125 178.753906 L 187.792969 180.792969 C 200.355469 177.179688 213.0625 174.066406 225.808594 171.183594 Z M 214.347656 169.371094 " fill-opacity="1" fill-rule="evenodd"/><path fill="rgb(17.248535%, 61.959839%, 78.039551%)" d="M 147.472656 195 C 158.742188 190.015625 170.457031 185.964844 182.265625 182.417969 L 169.378906 180.339844 C 157.117188 183.8125 144.898438 187.757812 133.105469 192.644531 L 147.46875 195 Z M 147.472656 195 " fill-opacity="1" fill-rule="evenodd"/><path fill="rgb(17.248535%, 61.959839%, 78.039551%)" d="M 166.585938 198.144531 C 177.738281 193.117188 189.34375 189.027344 201.046875 185.445312 L 187.941406 183.332031 C 175.789062 186.835938 163.675781 190.816406 152.003906 195.746094 L 166.589844 198.144531 Z M 166.585938 198.144531 " fill-opacity="1" fill-rule="evenodd"/><path fill="rgb(17.248535%, 61.959839%, 78.039551%)" d="M 171.066406 198.878906 L 185.878906 201.3125 C 196.90625 196.242188 208.40625 192.117188 219.996094 188.503906 L 206.664062 186.351562 C 194.621094 189.894531 182.621094 193.910156 171.070312 198.878906 Z M 171.066406 198.878906 " fill-opacity="1" fill-rule="evenodd"/><g clip-path="url(#id4)"><path fill="rgb(17.248535%, 61.959839%, 78.039551%)" d="M 166.914062 200.714844 C 157.445312 205.027344 148.042969 210.167969 139.777344 216.59375 C 141.71875 217.453125 143.695312 218.246094 145.707031 218.964844 L 154.867188 220.5 C 162.917969 213.480469 172.3125 207.871094 181.929688 203.183594 L 166.914062 200.71875 Z M 166.914062 200.714844 " fill-opacity="1" fill-rule="evenodd"/></g><path fill="rgb(17.248535%, 61.959839%, 78.039551%)" d="M 147.792969 197.570312 C 140.410156 200.871094 133.058594 204.660156 126.222656 209.144531 C 129.738281 211.488281 133.421875 213.59375 137.253906 215.429688 C 144.964844 209.273438 153.679688 204.25 162.582031 200.003906 Z M 147.792969 197.570312 " fill-opacity="1" fill-rule="evenodd"/><g clip-path="url(#id5)"><path fill="rgb(60.389709%, 79.219055%, 28.239441%)" d="M 148.359375 118.070312 C 158.929688 123.0625 163.136719 128.535156 170.238281 139.460938 C 150.144531 160.84375 118.34375 122.027344 114.425781 99.992188 C 113.894531 96.976562 113.5 93.957031 113.242188 91.003906 C 135.015625 102.90625 166.257812 96.289062 171.257812 134.863281 C 164.378906 127.617188 158.683594 121.011719 148.359375 118.070312 Z M 148.359375 118.070312 " fill-opacity="1" fill-rule="evenodd"/></g><g clip-path="url(#id6)"><path fill="rgb(45.878601%, 67.83905%, 30.589294%)" d="M 173.832031 171.535156 L 173.664062 170.097656 C 173.457031 167.332031 173.351562 164.472656 173.195312 161.667969 L 173.195312 145.980469 C 173.777344 136.804688 173.910156 132.746094 177.539062 124.867188 C 182.894531 113.234375 191.386719 101.609375 203.949219 92.730469 C 188.398438 101.386719 178.960938 114.542969 172.746094 122.863281 C 173.574219 104.355469 178.863281 89.933594 189.222656 82.988281 C 195.257812 78.949219 219.308594 65.699219 225.316406 63.746094 C 225.835938 80.40625 226.136719 96.664062 217.570312 108.515625 C 211.671875 116.671875 197.796875 124.277344 183.082031 126.546875 C 176.515625 139.113281 179.222656 151.828125 180.648438 169.957031 C 185.878906 168.769531 191.125 167.636719 196.371094 166.527344 L 207.597656 168.304688 C 194.738281 171.148438 181.925781 174.230469 169.246094 177.804688 L 156.800781 175.800781 C 162.457031 174.296875 168.136719 172.882812 173.832031 171.535156 Z M 173.832031 171.535156 " fill-opacity="1" fill-rule="evenodd"/></g><path fill="rgb(98.429871%, 68.238831%, 24.308777%)" d="M 192.671875 162.054688 C 214.582031 157.359375 233.214844 153.574219 248.5625 150.707031 C 248.398438 150.359375 248.222656 150.011719 248.042969 149.667969 C 246.375 146.46875 243.542969 142.679688 240.78125 140.542969 C 238.066406 138.445312 236.261719 137.109375 232.671875 135.734375 C 228.929688 134.296875 224.496094 133.507812 220.035156 133.785156 C 214.453125 134.132812 209.480469 136.082031 205.136719 139.042969 L 203.101562 140.609375 C 202.867188 140.789062 202.808594 140.800781 202.585938 141.015625 L 198.652344 145.347656 C 198.023438 146.15625 197.628906 146.675781 197.117188 147.539062 C 194.363281 152.160156 192.871094 157.101562 192.671875 162.058594 Z M 192.671875 162.054688 " fill-opacity="1" fill-rule="evenodd"/><g fill="rgb(20.388794%, 20.388794%, 20.388794%)" fill-opacity="1"><g transform="translate(39.136725, 270.104648)"><g><path d="M 6.859375 -4.734375 C 3.410156 -8.085938 1.6875 -12.34375 1.6875 -17.5 C 1.6875 -22.65625 3.410156 -26.910156 6.859375 -30.265625 C 10.316406 -33.617188 14.539062 -35.296875 19.53125 -35.296875 C 23.394531 -35.296875 26.832031 -34.269531 29.84375 -32.21875 C 32.851562 -30.175781 34.953125 -27.335938 36.140625 -23.703125 L 26.03125 -23.703125 C 24.707031 -26.242188 22.585938 -27.515625 19.671875 -27.515625 C 16.765625 -27.515625 14.476562 -26.601562 12.8125 -24.78125 C 11.144531 -22.96875 10.3125 -20.539062 10.3125 -17.5 C 10.3125 -14.457031 11.144531 -12.023438 12.8125 -10.203125 C 14.476562 -8.390625 16.765625 -7.484375 19.671875 -7.484375 C 22.585938 -7.484375 24.707031 -8.753906 26.03125 -11.296875 L 36.140625 -11.296875 C 34.953125 -7.660156 32.851562 -4.816406 29.84375 -2.765625 C 26.832031 -0.722656 23.394531 0.296875 19.53125 0.296875 C 14.539062 0.296875 10.316406 -1.378906 6.859375 -4.734375 Z M 6.859375 -4.734375 "/></g></g></g><g fill="rgb(20.388794%, 20.388794%, 20.388794%)" fill-opacity="1"><g transform="translate(75.77968, 270.104648)"><g><path d="M 12.203125 -36.6875 L 12.203125 -23.59375 C 13.953125 -26.507812 16.742188 -27.96875 20.578125 -27.96875 C 23.742188 -27.96875 26.3125 -26.90625 28.28125 -24.78125 C 30.25 -22.664062 31.234375 -19.789062 31.234375 -16.15625 L 31.234375 0 L 22.8125 0 L 22.8125 -15.015625 C 22.8125 -16.804688 22.335938 -18.1875 21.390625 -19.15625 C 20.453125 -20.132812 19.15625 -20.625 17.5 -20.625 C 15.84375 -20.625 14.546875 -20.132812 13.609375 -19.15625 C 12.671875 -18.1875 12.203125 -16.804688 12.203125 -15.015625 L 12.203125 0 L 3.71875 0 L 3.71875 -36.6875 Z M 12.203125 -36.6875 "/></g></g></g><g fill="rgb(20.388794%, 20.388794%, 20.388794%)" fill-opacity="1"><g transform="translate(109.24922, 270.104648)"><g><path d="M 20.5625 -8.765625 C 21.789062 -9.960938 22.40625 -11.648438 22.40625 -13.828125 C 22.40625 -16.015625 21.789062 -17.691406 20.5625 -18.859375 C 19.34375 -20.035156 17.941406 -20.625 16.359375 -20.625 C 14.773438 -20.625 13.367188 -20.03125 12.140625 -18.84375 C 10.921875 -17.65625 10.3125 -15.96875 10.3125 -13.78125 C 10.3125 -11.601562 10.921875 -9.925781 12.140625 -8.75 C 13.367188 -7.570312 14.773438 -6.984375 16.359375 -6.984375 C 17.941406 -6.984375 19.34375 -7.578125 20.5625 -8.765625 Z M 5.34375 -3.609375 C 2.90625 -6.253906 1.6875 -9.644531 1.6875 -13.78125 C 1.6875 -17.914062 2.90625 -21.3125 5.34375 -23.96875 C 7.789062 -26.632812 10.773438 -27.96875 14.296875 -27.96875 C 17.816406 -27.96875 20.519531 -26.660156 22.40625 -24.046875 L 22.40625 -27.671875 L 30.890625 -27.671875 L 30.890625 0 L 22.40625 0 L 22.40625 -4.015625 C 20.351562 -1.109375 17.609375 0.34375 14.171875 0.34375 C 10.734375 0.34375 7.789062 -0.972656 5.34375 -3.609375 Z M 5.34375 -3.609375 "/></g></g></g><g fill="rgb(20.388794%, 20.388794%, 20.388794%)" fill-opacity="1"><g transform="translate(142.619586, 270.104648)"><g><path d="M 12.203125 -27.671875 L 12.203125 -23.59375 C 13.953125 -26.507812 16.742188 -27.96875 20.578125 -27.96875 C 22.628906 -27.96875 24.453125 -27.503906 26.046875 -26.578125 C 27.648438 -25.648438 28.898438 -24.328125 29.796875 -22.609375 C 30.816406 -24.222656 32.144531 -25.519531 33.78125 -26.5 C 35.414062 -27.476562 37.242188 -27.96875 39.265625 -27.96875 C 42.640625 -27.96875 45.316406 -26.925781 47.296875 -24.84375 C 49.273438 -22.757812 50.265625 -19.863281 50.265625 -16.15625 L 50.265625 0 L 41.84375 0 L 41.84375 -15.015625 C 41.84375 -16.804688 41.367188 -18.1875 40.421875 -19.15625 C 39.484375 -20.132812 38.1875 -20.625 36.53125 -20.625 C 34.882812 -20.625 33.585938 -20.132812 32.640625 -19.15625 C 31.703125 -18.1875 31.234375 -16.804688 31.234375 -15.015625 L 31.234375 0 L 22.8125 0 L 22.8125 -15.015625 C 22.8125 -16.804688 22.335938 -18.1875 21.390625 -19.15625 C 20.453125 -20.132812 19.15625 -20.625 17.5 -20.625 C 15.84375 -20.625 14.546875 -20.132812 13.609375 -19.15625 C 12.671875 -18.1875 12.203125 -16.804688 12.203125 -15.015625 L 12.203125 0 L 3.71875 0 L 3.71875 -27.671875 Z M 12.203125 -27.671875 "/></g></g></g><g fill="rgb(20.388794%, 20.388794%, 20.388794%)" fill-opacity="1"><g transform="translate(195.129621, 270.104648)"><g><path d="M 15.46875 0.34375 C 11.4375 0.34375 8.128906 -0.953125 5.546875 -3.546875 C 2.972656 -6.140625 1.6875 -9.582031 1.6875 -13.875 C 1.6875 -18.175781 2.96875 -21.597656 5.53125 -24.140625 C 8.09375 -26.691406 11.40625 -27.96875 15.46875 -27.96875 C 19.53125 -27.96875 22.898438 -26.707031 25.578125 -24.1875 C 28.253906 -21.675781 29.59375 -18.191406 29.59375 -13.734375 C 29.59375 -12.773438 29.53125 -11.882812 29.40625 -11.0625 L 10.359375 -11.0625 C 10.523438 -9.832031 11.070312 -8.828125 12 -8.046875 C 12.925781 -7.273438 13.925781 -6.890625 15 -6.890625 C 16.070312 -6.890625 16.867188 -6.992188 17.390625 -7.203125 C 17.921875 -7.421875 18.3125 -7.640625 18.5625 -7.859375 C 18.8125 -8.078125 19.132812 -8.429688 19.53125 -8.921875 L 28.703125 -8.921875 C 27.910156 -6.148438 26.320312 -3.910156 23.9375 -2.203125 C 21.5625 -0.503906 18.738281 0.34375 15.46875 0.34375 Z M 20.765625 -16.359375 C 20.640625 -17.648438 20.078125 -18.695312 19.078125 -19.5 C 18.085938 -20.3125 16.914062 -20.71875 15.5625 -20.71875 C 14.207031 -20.71875 13.066406 -20.3125 12.140625 -19.5 C 11.222656 -18.695312 10.644531 -17.648438 10.40625 -16.359375 Z M 20.765625 -16.359375 "/></g></g></g><g fill="rgb(20.388794%, 20.388794%, 20.388794%)" fill-opacity="1"><g transform="translate(225.227398, 270.104648)"><g><path d="M 3.71875 0 L 3.71875 -36.6875 L 12.203125 -36.6875 L 12.203125 0 Z M 3.71875 0 "/></g></g></g><g fill="rgb(20.388794%, 20.388794%, 20.388794%)" fill-opacity="1"><g transform="translate(239.904376, 270.104648)"><g><path d="M 15.46875 0.34375 C 11.4375 0.34375 8.128906 -0.953125 5.546875 -3.546875 C 2.972656 -6.140625 1.6875 -9.582031 1.6875 -13.875 C 1.6875 -18.175781 2.96875 -21.597656 5.53125 -24.140625 C 8.09375 -26.691406 11.40625 -27.96875 15.46875 -27.96875 C 19.53125 -27.96875 22.898438 -26.707031 25.578125 -24.1875 C 28.253906 -21.675781 29.59375 -18.191406 29.59375 -13.734375 C 29.59375 -12.773438 29.53125 -11.882812 29.40625 -11.0625 L 10.359375 -11.0625 C 10.523438 -9.832031 11.070312 -8.828125 12 -8.046875 C 12.925781 -7.273438 13.925781 -6.890625 15 -6.890625 C 16.070312 -6.890625 16.867188 -6.992188 17.390625 -7.203125 C 17.921875 -7.421875 18.3125 -7.640625 18.5625 -7.859375 C 18.8125 -8.078125 19.132812 -8.429688 19.53125 -8.921875 L 28.703125 -8.921875 C 27.910156 -6.148438 26.320312 -3.910156 23.9375 -2.203125 C 21.5625 -0.503906 18.738281 0.34375 15.46875 0.34375 Z M 20.765625 -16.359375 C 20.640625 -17.648438 20.078125 -18.695312 19.078125 -19.5 C 18.085938 -20.3125 16.914062 -20.71875 15.5625 -20.71875 C 14.207031 -20.71875 13.066406 -20.3125 12.140625 -19.5 C 11.222656 -18.695312 10.644531 -17.648438 10.40625 -16.359375 Z M 20.765625 -16.359375 "/></g></g></g><g fill="rgb(20.388794%, 20.388794%, 20.388794%)" fill-opacity="1"><g transform="translate(270.002172, 270.104648)"><g><path d="M 20.328125 -8.671875 C 21.453125 -9.867188 22.015625 -11.585938 22.015625 -13.828125 C 22.015625 -16.078125 21.4375 -17.785156 20.28125 -18.953125 C 19.125 -20.128906 17.75 -20.71875 16.15625 -20.71875 C 14.570312 -20.71875 13.207031 -20.128906 12.0625 -18.953125 C 10.925781 -17.785156 10.359375 -16.078125 10.359375 -13.828125 C 10.359375 -11.585938 10.941406 -9.867188 12.109375 -8.671875 C 13.285156 -7.484375 14.664062 -6.890625 16.25 -6.890625 C 17.84375 -6.890625 19.203125 -7.484375 20.328125 -8.671875 Z M 5.921875 -3.5625 C 3.128906 -6.175781 1.734375 -9.613281 1.734375 -13.875 C 1.734375 -18.144531 3.117188 -21.5625 5.890625 -24.125 C 8.671875 -26.6875 12.109375 -27.96875 16.203125 -27.96875 C 20.304688 -27.96875 23.738281 -26.6875 26.5 -24.125 C 29.257812 -21.5625 30.640625 -18.144531 30.640625 -13.875 C 30.640625 -9.613281 29.265625 -6.175781 26.515625 -3.5625 C 23.773438 -0.957031 20.351562 0.34375 16.25 0.34375 C 12.15625 0.34375 8.710938 -0.957031 5.921875 -3.5625 Z M 5.921875 -3.5625 "/></g></g></g><g fill="rgb(20.388794%, 20.388794%, 20.388794%)" fill-opacity="1"><g transform="translate(301.141231, 270.104648)"><g><path d="M 12.203125 -27.671875 L 12.203125 -23.59375 C 13.953125 -26.507812 16.742188 -27.96875 20.578125 -27.96875 C 23.742188 -27.96875 26.3125 -26.90625 28.28125 -24.78125 C 30.25 -22.664062 31.234375 -19.789062 31.234375 -16.15625 L 31.234375 0 L 22.8125 0 L 22.8125 -15.015625 C 22.8125 -16.804688 22.335938 -18.1875 21.390625 -19.15625 C 20.453125 -20.132812 19.15625 -20.625 17.5 -20.625 C 15.84375 -20.625 14.546875 -20.132812 13.609375 -19.15625 C 12.671875 -18.1875 12.203125 -16.804688 12.203125 -15.015625 L 12.203125 0 L 3.71875 0 L 3.71875 -27.671875 Z M 12.203125 -27.671875 "/></g></g></g><g fill="rgb(20.388794%, 20.388794%, 20.388794%)" fill-opacity="1"><g transform="translate(108.512194, 306.45291)"><g><path d="M 5.0625 -9.328125 C 4.71875 -9.328125 4.429688 -9.234375 4.203125 -9.046875 C 3.984375 -8.859375 3.875 -8.59375 3.875 -8.25 C 3.875 -7.90625 3.972656 -7.628906 4.171875 -7.421875 C 4.378906 -7.210938 4.648438 -7.050781 4.984375 -6.9375 C 5.316406 -6.820312 5.679688 -6.710938 6.078125 -6.609375 C 6.484375 -6.515625 6.882812 -6.394531 7.28125 -6.25 C 7.6875 -6.101562 8.050781 -5.921875 8.375 -5.703125 C 8.707031 -5.484375 8.972656 -5.175781 9.171875 -4.78125 C 9.378906 -4.394531 9.484375 -3.925781 9.484375 -3.375 C 9.484375 -2.414062 9.09375 -1.59375 8.3125 -0.90625 C 7.53125 -0.226562 6.5 0.109375 5.21875 0.109375 C 3.945312 0.109375 2.921875 -0.195312 2.140625 -0.8125 C 1.359375 -1.425781 0.96875 -2.296875 0.96875 -3.421875 L 3.90625 -3.421875 C 3.976562 -2.515625 4.441406 -2.0625 5.296875 -2.0625 C 5.691406 -2.0625 6.003906 -2.164062 6.234375 -2.375 C 6.460938 -2.59375 6.578125 -2.863281 6.578125 -3.1875 C 6.578125 -3.507812 6.472656 -3.769531 6.265625 -3.96875 C 6.066406 -4.175781 5.800781 -4.335938 5.46875 -4.453125 C 5.132812 -4.578125 4.765625 -4.6875 4.359375 -4.78125 C 3.960938 -4.882812 3.5625 -5.007812 3.15625 -5.15625 C 2.757812 -5.3125 2.394531 -5.492188 2.0625 -5.703125 C 1.738281 -5.921875 1.472656 -6.222656 1.265625 -6.609375 C 1.066406 -7.003906 0.96875 -7.472656 0.96875 -8.015625 C 0.96875 -9.066406 1.359375 -9.910156 2.140625 -10.546875 C 2.929688 -11.179688 3.9375 -11.5 5.15625 -11.5 C 6.382812 -11.5 7.375 -11.222656 8.125 -10.671875 C 8.875 -10.117188 9.269531 -9.242188 9.3125 -8.046875 L 6.296875 -8.046875 C 6.253906 -8.453125 6.125 -8.765625 5.90625 -8.984375 C 5.6875 -9.210938 5.40625 -9.328125 5.0625 -9.328125 Z M 5.0625 -9.328125 "/></g></g></g><g fill="rgb(20.388794%, 20.388794%, 20.388794%)" fill-opacity="1"><g transform="translate(121.0945, 306.45291)"><g><path d="M 3.96875 -9.015625 L 3.96875 -7.6875 C 4.539062 -8.632812 5.453125 -9.109375 6.703125 -9.109375 C 7.367188 -9.109375 7.960938 -8.957031 8.484375 -8.65625 C 9.015625 -8.351562 9.421875 -7.925781 9.703125 -7.375 C 10.035156 -7.894531 10.46875 -8.3125 11 -8.625 C 11.539062 -8.945312 12.140625 -9.109375 12.796875 -9.109375 C 13.890625 -9.109375 14.757812 -8.769531 15.40625 -8.09375 C 16.050781 -7.414062 16.375 -6.472656 16.375 -5.265625 L 16.375 0 L 13.640625 0 L 13.640625 -4.890625 C 13.640625 -5.472656 13.484375 -5.921875 13.171875 -6.234375 C 12.867188 -6.554688 12.445312 -6.71875 11.90625 -6.71875 C 11.363281 -6.71875 10.9375 -6.554688 10.625 -6.234375 C 10.320312 -5.921875 10.171875 -5.472656 10.171875 -4.890625 L 10.171875 0 L 7.4375 0 L 7.4375 -4.890625 C 7.4375 -5.472656 7.28125 -5.921875 6.96875 -6.234375 C 6.664062 -6.554688 6.242188 -6.71875 5.703125 -6.71875 C 5.160156 -6.71875 4.734375 -6.554688 4.421875 -6.234375 C 4.117188 -5.921875 3.96875 -5.472656 3.96875 -4.890625 L 3.96875 0 L 1.21875 0 L 1.21875 -9.015625 Z M 3.96875 -9.015625 "/></g></g></g><g fill="rgb(20.388794%, 20.388794%, 20.388794%)" fill-opacity="1"><g transform="translate(140.7347, 306.45291)"><g><path d="M 6.703125 -2.859375 C 7.097656 -3.242188 7.296875 -3.789062 7.296875 -4.5 C 7.296875 -5.21875 7.097656 -5.765625 6.703125 -6.140625 C 6.304688 -6.523438 5.847656 -6.71875 5.328125 -6.71875 C 4.816406 -6.71875 4.359375 -6.523438 3.953125 -6.140625 C 3.554688 -5.753906 3.359375 -5.203125 3.359375 -4.484375 C 3.359375 -3.773438 3.554688 -3.226562 3.953125 -2.84375 C 4.359375 -2.46875 4.816406 -2.28125 5.328125 -2.28125 C 5.847656 -2.28125 6.304688 -2.472656 6.703125 -2.859375 Z M 1.734375 -1.171875 C 0.941406 -2.035156 0.546875 -3.140625 0.546875 -4.484375 C 0.546875 -5.835938 0.941406 -6.945312 1.734375 -7.8125 C 2.535156 -8.675781 3.507812 -9.109375 4.65625 -9.109375 C 5.800781 -9.109375 6.679688 -8.679688 7.296875 -7.828125 L 7.296875 -9.015625 L 10.0625 -9.015625 L 10.0625 0 L 7.296875 0 L 7.296875 -1.3125 C 6.628906 -0.363281 5.734375 0.109375 4.609375 0.109375 C 3.492188 0.109375 2.535156 -0.316406 1.734375 -1.171875 Z M 1.734375 -1.171875 "/></g></g></g><g fill="rgb(20.388794%, 20.388794%, 20.388794%)" fill-opacity="1"><g transform="translate(154.140697, 306.45291)"><g><path d="M 3.96875 -9.015625 L 3.96875 -7.328125 C 4.613281 -8.515625 5.476562 -9.109375 6.5625 -9.109375 L 6.5625 -6.296875 L 5.875 -6.296875 C 5.238281 -6.296875 4.757812 -6.144531 4.4375 -5.84375 C 4.125 -5.539062 3.96875 -5.015625 3.96875 -4.265625 L 3.96875 0 L 1.21875 0 L 1.21875 -9.015625 Z M 3.96875 -9.015625 "/></g></g></g><g fill="rgb(20.388794%, 20.388794%, 20.388794%)" fill-opacity="1"><g transform="translate(163.121376, 306.45291)"><g><path d="M 5.046875 -2.34375 L 6.03125 -2.34375 L 6.03125 0 L 4.625 0 C 3.613281 0 2.828125 -0.222656 2.265625 -0.671875 C 1.710938 -1.117188 1.4375 -1.882812 1.4375 -2.96875 L 1.4375 -6.71875 L 0.59375 -6.71875 L 0.59375 -9.015625 L 1.4375 -9.015625 L 1.4375 -11.21875 L 4.203125 -11.21875 L 4.203125 -9.015625 L 6.015625 -9.015625 L 6.015625 -6.71875 L 4.203125 -6.71875 L 4.203125 -2.96875 C 4.203125 -2.550781 4.484375 -2.34375 5.046875 -2.34375 Z M 5.046875 -2.34375 "/></g></g></g><g fill="rgb(20.388794%, 20.388794%, 20.388794%)" fill-opacity="1"><g transform="translate(171.956689, 306.45291)"><g><path d="M 5.046875 0.109375 C 3.722656 0.109375 2.640625 -0.3125 1.796875 -1.15625 C 0.960938 -2 0.546875 -3.117188 0.546875 -4.515625 C 0.546875 -5.921875 0.960938 -7.035156 1.796875 -7.859375 C 2.628906 -8.691406 3.707031 -9.109375 5.03125 -9.109375 C 6.363281 -9.109375 7.460938 -8.695312 8.328125 -7.875 C 9.203125 -7.0625 9.640625 -5.925781 9.640625 -4.46875 C 9.640625 -4.15625 9.617188 -3.867188 9.578125 -3.609375 L 3.375 -3.609375 C 3.425781 -3.203125 3.601562 -2.875 3.90625 -2.625 C 4.207031 -2.375 4.53125 -2.25 4.875 -2.25 C 5.226562 -2.25 5.488281 -2.28125 5.65625 -2.34375 C 5.832031 -2.414062 5.960938 -2.488281 6.046875 -2.5625 C 6.128906 -2.632812 6.234375 -2.75 6.359375 -2.90625 L 9.359375 -2.90625 C 9.097656 -2 8.578125 -1.269531 7.796875 -0.71875 C 7.023438 -0.164062 6.109375 0.109375 5.046875 0.109375 Z M 6.765625 -5.328125 C 6.722656 -5.753906 6.539062 -6.097656 6.21875 -6.359375 C 5.894531 -6.617188 5.507812 -6.75 5.0625 -6.75 C 4.625 -6.75 4.253906 -6.617188 3.953125 -6.359375 C 3.648438 -6.097656 3.460938 -5.753906 3.390625 -5.328125 Z M 6.765625 -5.328125 "/></g></g></g><g fill="rgb(20.388794%, 20.388794%, 20.388794%)" fill-opacity="1"><g transform="translate(184.296734, 306.45291)"><g><path d="M 3.96875 -9.015625 L 3.96875 -7.328125 C 4.613281 -8.515625 5.476562 -9.109375 6.5625 -9.109375 L 6.5625 -6.296875 L 5.875 -6.296875 C 5.238281 -6.296875 4.757812 -6.144531 4.4375 -5.84375 C 4.125 -5.539062 3.96875 -5.015625 3.96875 -4.265625 L 3.96875 0 L 1.21875 0 L 1.21875 -9.015625 Z M 3.96875 -9.015625 "/></g></g></g><g fill="rgb(20.388794%, 20.388794%, 20.388794%)" fill-opacity="1"><g transform="translate(193.277413, 306.45291)"><g/></g></g><g fill="rgb(20.388794%, 20.388794%, 20.388794%)" fill-opacity="1"><g transform="translate(200.25539, 306.45291)"><g><path d="M 13.796875 -11.34375 L 16.765625 -11.34375 L 13.609375 0 L 10.4375 0 L 8.453125 -7.1875 L 6.484375 0 L 3.3125 0 L 0.09375 -11.34375 L 3.046875 -11.34375 L 5.03125 -3.1875 L 7.046875 -11.34375 L 10.171875 -11.34375 L 12.109375 -3.3125 Z M 13.796875 -11.34375 "/></g></g></g><g fill="rgb(20.388794%, 20.388794%, 20.388794%)" fill-opacity="1"><g transform="translate(219.265711, 306.45291)"><g><path d="M 6.625 -2.828125 C 6.988281 -3.210938 7.171875 -3.769531 7.171875 -4.5 C 7.171875 -5.238281 6.984375 -5.796875 6.609375 -6.171875 C 6.234375 -6.554688 5.785156 -6.75 5.265625 -6.75 C 4.742188 -6.75 4.296875 -6.554688 3.921875 -6.171875 C 3.554688 -5.796875 3.375 -5.238281 3.375 -4.5 C 3.375 -3.769531 3.566406 -3.210938 3.953125 -2.828125 C 4.335938 -2.441406 4.785156 -2.25 5.296875 -2.25 C 5.816406 -2.25 6.257812 -2.441406 6.625 -2.828125 Z M 1.921875 -1.15625 C 1.015625 -2.007812 0.5625 -3.128906 0.5625 -4.515625 C 0.5625 -5.910156 1.015625 -7.023438 1.921875 -7.859375 C 2.828125 -8.691406 3.945312 -9.109375 5.28125 -9.109375 C 6.613281 -9.109375 7.726562 -8.691406 8.625 -7.859375 C 9.53125 -7.023438 9.984375 -5.910156 9.984375 -4.515625 C 9.984375 -3.128906 9.535156 -2.007812 8.640625 -1.15625 C 7.742188 -0.3125 6.628906 0.109375 5.296875 0.109375 C 3.960938 0.109375 2.835938 -0.3125 1.921875 -1.15625 Z M 1.921875 -1.15625 "/></g></g></g><g fill="rgb(20.388794%, 20.388794%, 20.388794%)" fill-opacity="1"><g transform="translate(231.944923, 306.45291)"><g><path d="M 3.96875 -9.015625 L 3.96875 -7.328125 C 4.613281 -8.515625 5.476562 -9.109375 6.5625 -9.109375 L 6.5625 -6.296875 L 5.875 -6.296875 C 5.238281 -6.296875 4.757812 -6.144531 4.4375 -5.84375 C 4.125 -5.539062 3.96875 -5.015625 3.96875 -4.265625 L 3.96875 0 L 1.21875 0 L 1.21875 -9.015625 Z M 3.96875 -9.015625 "/></g></g></g><g fill="rgb(20.388794%, 20.388794%, 20.388794%)" fill-opacity="1"><g transform="translate(240.925607, 306.45291)"><g><path d="M 1.21875 0 L 1.21875 -11.953125 L 3.96875 -11.953125 L 3.96875 0 Z M 1.21875 0 "/></g></g></g><g fill="rgb(20.388794%, 20.388794%, 20.388794%)" fill-opacity="1"><g transform="translate(248.242756, 306.45291)"><g><path d="M 6.703125 -2.859375 C 7.097656 -3.242188 7.296875 -3.789062 7.296875 -4.5 C 7.296875 -5.21875 7.097656 -5.765625 6.703125 -6.140625 C 6.304688 -6.523438 5.847656 -6.71875 5.328125 -6.71875 C 4.816406 -6.71875 4.359375 -6.523438 3.953125 -6.140625 C 3.554688 -5.753906 3.359375 -5.203125 3.359375 -4.484375 C 3.359375 -3.773438 3.554688 -3.226562 3.953125 -2.84375 C 4.359375 -2.46875 4.816406 -2.28125 5.328125 -2.28125 C 5.847656 -2.28125 6.304688 -2.472656 6.703125 -2.859375 Z M 1.734375 -1.171875 C 0.941406 -2.035156 0.546875 -3.140625 0.546875 -4.484375 C 0.546875 -5.835938 0.941406 -6.945312 1.734375 -7.8125 C 2.535156 -8.675781 3.507812 -9.109375 4.65625 -9.109375 C 5.800781 -9.109375 6.679688 -8.679688 7.296875 -7.828125 L 7.296875 -11.953125 L 10.0625 -11.953125 L 10.0625 0 L 7.296875 0 L 7.296875 -1.3125 C 6.628906 -0.363281 5.734375 0.109375 4.609375 0.109375 C 3.492188 0.109375 2.535156 -0.316406 1.734375 -1.171875 Z M 1.734375 -1.171875 "/></g></g></g><g fill="rgb(20.388794%, 20.388794%, 20.388794%)" fill-opacity="1"><g transform="translate(261.644267, 306.45291)"><g/></g></g></svg>